<?xml version="1.0" encoding="UTF-8"?>
<svg enable-background="new 0 0 1375.112 1684.947" version="1.1" viewBox="0 0 1375.112 1684.947" xmlns="http://www.w3.org/2000/svg">
 <g fill="none" stroke="#000" stroke-linecap="round" stroke-linejoin="round" stroke-miterlimit="10" stroke-width="3">
  <path d="m1151.8 481.65c-15.051 114.16-0.51 104.2 4.04 181.88 1.69 28.838 21.406 89.641 17.888 127.6 0 0 6.357 34.022 5.142 105.17-0.708 41.492-1.808 82.983-7.408 124.19-1.323 9.732-4.851 19.043-4.162 29.192 7.888 116.13 0.476 54.468 12.949 107.91 15.144 64.887 16.842 103.86 3.28 163.5-12.182 53.573-22.559 94.02-20.294 124.24 0.761 10.156 3.04 20.777 1.018 30.439-5.948 28.418 31.747 123.54 4.503 126.22-5.161 0.508-1.718 9.596-8.899 14.219-0.792 0.51-3.719 2.504-3.985-1.222"/>
  <path d="m904.74 483.01c3.451 10.461 6.976 77.528 6.805 93.653-0.152 14.251-4.156 27.966-5.625 42.057-10.88 104.37-23.949 124.54-23.256 163.57 0.018 1.001-12.983 160.3 4.129 244.92 4.325 21.387 0.819 42.147 0.273 63.189-0.288 11.089 0.145 22.333-1.595 33.211-6.321 39.501-35.8 89.214-10.704 203.66 27.652 126.1 18.484 106.98 18.221 132.31-0.094 9.09-1.499 18.21 1.011 27.115 0.888 3.149 0.52 6.14-0.242 8.82-7.073 24.867-13.163 55.738-15.341 93.696-0.472 8.216 2.609 11.844 10.745 13.408 3.022 0.581 1.741 2.208 1.989 3.553 0.8 4.332 2.475 8.153 6.129 10.849 2.632 1.942 3.181-0.411 4.068-2.03"/>
  <path d="m1029.6 820.97c1.591 7.624 0.486 15.675 3.419 23.064 10.535 26.538 0.078 65.63 22.751 129.06 31.291 87.538-9.891 116.8 37.244 194.48 10.64 17.534-1.02 31.361 0.337 93.157 0.264 12.043 18.212 83.315 25.292 121.45 4.14 22.297-7.885 43.672-11.228 80.085-6.489 70.662-21.663 102.5-7.907 134.39 1.825 4.232-0.563 8.583 0.592 12.918 1.527 5.731 3.079 11.248 7.509 15.624 6.851 6.767 10.14 7.63 19.013 3.977 0.906-0.373 1.726-1.98 2.694-1.239 6.279 4.803 10.405 0.741 14.214-3.526 1.478-1.656 2.961-1.726 4.818-2.052 3.007-0.528 5.544-2.21 7.481-4.661"/>
  <path d="m1019.4 857.62c-7.763 130.11-16.565 80.577-29.958 170.32-6.236 41.787 9.408 67.487-14.992 120.74-3.518 7.678-6.988 15.583-12.105 22.432-8.554 11.449 1.368 25.531 1.415 84.867 0.018 22.305-20.478 91.095-25.774 130.3-3.617 26.783 8.759 37.03 13.401 92.305 4.279 50.96 19.563 85.723 5.962 118.63-0.961 2.324-0.305 3.814-0.277 5.549 0.369 22.967-15.065 33.762-25.851 27.746-1.696-0.946-2.616-2.396-4.851-0.672-7.899 6.094-11.218-7.108-19.623-7.432-3.03-0.116-4.165-3.01-6.109-4.711"/>
  <path d="m1278 850.83c4.443 5.908 2.049 5.14 12.905 45.466 0.757 2.812 0.676 6.218 5.431 5.516 18.863-2.785-11.706-61.841-6.022-64.331 6.503-2.85 20.876 48.011 22.411 49.165 2.191 1.647 4.893 3.884 8.017 1.493 2.694-2.061 4.078-4.545 2.754-8.138-16.405-44.5-24.673-89.486-19.684-91.549 3.955-1.636 25.904 33.002 35.204 20.257 3.289-4.507 2.078-1.474-24.324-37.992-16.67-23.056-43.883-7.136-51.853-44.709-5.613-26.458-12.603-34.109-12.706-48.232-0.382-52.672-13.513-101.38-21.142-109.81-3.811-4.209-1.84-28.691-15.34-116.2-1.131-7.332 2.722-14.37 3.266-21.698 1.617-21.787 1.96-43.455-1.87-65.177-10.54-59.777-83.908-52.868-129.09-94.993-9.156-8.536-15.297-41.951-0.864-67.949 6.308-11.363 13.263 2.789 23.17-20.296 4.526-10.546 4.771-20.729-4.698-29.119-6.105-5.409 16.005-100.85-61.722-109.37-65.677-7.192-93.62 35.908-86.977 101.88 0.295 2.924 1.07 6.108-1.87 8.879-12.315 11.603-7.64 27.179 0.719 37.172 3.114 3.723 6.238 8.702 12.821 6.276 6.321-2.33 30.674 55.922-5.326 81.543-50.207 35.733-112.38 31.092-120.28 92.104-3.327 25.687-3.042 51.243 2.054 76.692 1.486 7.422-1.256 14.531-2.221 21.688-4.202 31.159-8.36 62.309-10.637 93.681-0.111 1.524-0.404 2.708-1.286 4.13-16.051 25.892-22.51 83.318-21.935 113.95 0.187 9.952-4.098 11.675-16.757 58.385-1.638 6.044-5.063 9.65-10.923 11.583-32.276 10.644-34.372 15.808-60.504 52.127-1.595 2.217-3.068 3.631-0.653 6.219 10.543 11.298 31.633-21.669 34.618-20.304 9.716 4.444-14.747 79.705-18.309 90.14-2.195 6.431-1.695 9.955 2.772 10.738 4.774 0.838 7.538-2.321 8.777-6.661 14.27-49.994 24.531-48.996 20.857-38.749-8.791 24.518-14.463 52.039-12.607 53.585 2.108 1.756 3.091 4.954 6.703 4.912 6.202-0.071 4.382-5.7 10.922-28.546 2.266-7.917 2.796-16.329 6.722-23.771"/>
  <path d="m1167.4 402.93c-2.074 21.524-14.009 22.105-13.985 64.471 0.041 71.102 19.385 84.11 17.297 123.51-1.464 27.631 5.486 53.495 15.718 78.716 11.011 27.141 24.247 72.846 37.41 88.821 0.974 1.183 0.788 1.727 0.589 2.811-5.245 28.542 17.21 57.719 18.799 73.986 1.305 13.355 3.332 26.633 4.218 40.025 0.784 11.843 8.814 6.649 8.879 4.07 0.344-13.576 1.831-27.115 1.335-40.719"/>
  <path d="m903.38 483.01c-2.904 21.342-5.194 42.759-9.998 63.834-1.756 7.703-6.199 14.386-7.045 22.346-5.086 47.856 17.117 24.782-43.41 173.72-6.082 14.966-11.815 16.76-10.789 20.377 5.268 18.574-7.623 44.855-15.643 62.43-3.177 6.963-7.178 49.33-7.358 51.593-0.3 3.787-1.289 6.272-5.516 6.087-6.189-0.272-1.541-1.998-4.751-35.275"/>
  <path d="m1158.6 334.38c5.695-3.637 16.522 3.314 18.189-4.778 1.552-7.536-28.184-14.231-49.363-5.3-3.045 1.284-4.492 1.584-6.995-1.316-5.06-5.862-21.272-13.941-22.97-3.546-3.421 20.944-11.906 21.182-6.501 43.553 8.898 36.832-15.063 99.562 15.391 88.809 32.88-11.609 19.406-50.132 42.037-69.955 15.065-13.196 24.391-27.076 12.249-44.753-11.342-16.513-15.584-8.218-55.644 7.478-5.005 1.961-8.514 5.323-9.506 10.845"/>
  <path d="m961.07 356.78c-2.619-16.156-20.372-11.308-38.062-23.669-12.872-8.994-28.943-4.895-32.455 26.39-0.354 3.149 1.287 6.009 3.398 8.068 5.27 5.141 9.495 11.123 15.324 15.941 22.75 18.803 7.009 62.548 47.736 70.933 18.258 3.759 3.188-54.942 8.118-87.486 1.518-10.022 7.937-7.843-2.585-34.655-1.416-3.609-2.623-7.427-2.918-11.485-0.808-11.111-18.308-3.158-25.024 4.744"/>
  <path d="m798.87 839.97c-6.276 19.967-11.655 54.93-14.234 59.053-2.205 3.526-10.469 3.749-9.777-4.106 1.064-12.087 3.211-23.982 4.934-35.956 0.709-4.929-0.567-10.083 1.432-14.919"/>
  <path d="m954.28 340.49c-26.324-22.016-48.018-22.859-69.202-15.553-2.676 0.923-5.294 2.232-4.81 6.057 0.902 7.145 11.819 0.697 17.685 4.745"/>
  <path d="m889.13 404.28c3.543 23.649 12.816 14.802 14.93 77.365"/>
  <path d="m1028.9 788.4c-1.088 2.176-0.84 4.54-0.633 6.782 1.435 15.586-1.629 30.814-3.361 46.161-0.571 5.06-3.833 9.195-4.149 14.243"/>
  <path d="m1156.5 1487.4c-2.703-18.815-30.143-40.433-42.079-12.895-0.886 2.044-1.807 4.073-2.712 6.109"/>
  <path d="m1259 845.4c2.852 3.45 9.348 38.405 11.952 48.928 1.285 5.191 3.713 5.609 7.729 5.374 5.925-0.347 3.704-4.641 3.3-7.462-1.521-10.64-2.215-21.419-4.722-31.894-1.296-5.415 1.815-11.095-1.293-16.303"/>
  <path d="m944.78 1480.6c-2.976-5.119-8.493-26.246-27.813-14.91-8.421 4.941-14.649 11.624-16.299 21.697"/>
  <path d="m946.14 1088.4c2.491 19.774 2.679 51.647 1.357 54.291"/>
  <path d="m1111 1087.7c-2.677 17.795-3.472 35.662-2.036 53.613"/>
  <path d="m1134.8 1167.1c-12.406 10.805-22.183 23.429-27.103 39.375-0.268 0.867-0.431 1.408-1.4 1.344"/>
  <path d="m921.71 1168.4c13.726 10.616 22.632 24.604 28.503 40.719"/>
  <path d="m1035 854.22c-21.747-2.956-7.425 10.858-54.97 10.858"/>
  <path d="m1037.8 855.58c9.464 9.39 22.95 8.144 38.683 8.144"/>
  <path d="m1138.2 1423.6c0.153 9.953-1.773 19.907 0 29.86"/>
  <path d="m1050.6 735.46c-9.872 5.355-17.736 12.66-22.395 23.074"/>
  <path d="m918.32 1425.6c1.056 9.275 1.178 18.55 0 27.824"/>
  <path d="m924.42 1427.7c-0.448 9.184 0.678 18.21 2.715 27.146"/>
  <path d="m1005.9 736.82c10.153 4.846 23.116 14.747 21.717 25.788"/>
  <path d="m1132.8 1427.7c0.037 8.75-0.599 17.411-3.393 25.788"/>
  <path d="m1121.2 326.24c-6.334 4.298-12.668 8.596-19.002 12.894"/>
 </g>
 <g fill="none" stroke="#000" stroke-linecap="round" stroke-linejoin="round" stroke-miterlimit="10" stroke-width="3">
  <path d="m464.98 519.65c-10.417 111.12-5.977 55.255-1.255 108.57 8.44 95.303 24.416 122.01 23.478 165.59-0.022 1 13.034 124.02-2.551 237.53-1.397 10.175-4.895 19.96-4.172 30.547 7.426 108.87 0.635 58.636 13.135 109.22 32.673 132.22-12.613 177.76-18.13 275.58-0.511 9.064 3.054 36.524 2.262 39.307-6.778 23.81 17.331 74.645 13.631 115.4-0.688 7.574-2.604 9.708-10.137 11.428-2.609 0.596-1.714 2.101-2.029 3.504-2.283 10.16-10.066 14.383-19.024 16.818-4.289 1.165-9.748 12.552-16.9 6.233-1.654-1.461-2.28-3e-3 -3.444 0.66-6.592 3.753-14.034 2.766-18.945-2.696-11.53-12.822-5.614-22.873-9.522-33.23-11.06-29.307 2.113-67.887 4.533-92.312 10.119-102.11 23.33-92.619 12.499-136.4-6.01-24.295-9.662-49.15-16.471-73.244-15.032-53.189 7.313-101.2-6.42-124.38-19.304-32.573-27.557-67.598-22.928-105.75 4.426-36.473-17.184-97.458-21.22-112-12.136-43.741-6.978-72.862-11.759-93.591"/>
  <path d="m223.38 519.65c2.768 9.998 2.012 20.382 3.309 30.55 5.764 45.188 3.259 43.06 1.335 56.98-13.516 97.765-1.073 28.805-16.798 114.72-30.929 168.98-4.175 306.82-4.316 363.74-0.225 91.5-42.143 124.76-14.84 245.69 30.852 136.65 19.794 114.71 19.242 138.43-0.221 9.488-1.613 19.21 1.368 28.448 1.376 4.266-0.824 7.373-1.605 10.89-16.539 74.427-11.59 71.852-13.881 88.282-2.513 18.022 12.219 11.087 12.641 18.961 0.728 13.601 16.984 15.186 23.743 21.019 9.686 8.36 9.302 0.104 15.666 3.262 8.028 3.983 15.693 1.455 20.928-6.656 9.096-14.094 2.799-18.427 7.404-30.553 13.628-35.886-10.363-87.507-11.411-149.27-0.111-6.567-17.233-41.58-6.096-79.388 1.425-4.837 20.82-91.295 20.979-92.311 5.932-37.785-7.561-89.908-0.643-100.42 21.81-33.153 29.946-71.512 26.55-101.82-7.395-65.988 30.614-115.56 29.69-194.76-0.075-6.466 2.332-12.572 2.104-19.003"/>
  <path d="m296.68 244.12c-4.19 19.097 9.306 50.647-34.632 68.49-44.234 17.963-95.22 12.274-101.56 64.551-3.028 24.983-3.876 50.296 4.206 74.506 3.401 10.188-1.604 18.002-3.392 26.516-8.632 41.095-13.299 99.112-13.299 99.112-9.262 12.533-11.529 27.476-14.954 42.096-15.107 64.479 2.252 46.208-17.617 107.91-2.259 7.014-5.043 14.042-6.369 21.123-1.434 7.656-6.046 12.898-23.429 17.626-17.657 4.803-27.617 18.515-37.379 32.496-10.631 15.225-15.121 17.451-12.809 20.351 11.528 14.457 30.031-20.744 35.853-18.762 9.279 3.161-13.432 76.207-18.984 90.715-3.476 9.085 8.169 14.089 11.62 4.102 6.015-17.408 16.141-49.54 21.667-45.456 1.98 1.464 0.338 3.351-0.086 4.694-4.692 14.876-12.52 39.591-12.861 50.25-0.296 9.255 9.513 12.288 11.539 4.734 12.764-47.585 10.985-47.954 14.32-50.201"/>
  <path d="m391.69 242.77c-8.801 8.418-16.615 17.915-27.136 24.447-11.446 7.107-33.796 5.505-45.476-3.414-7.806-5.961-14.679-12.9-21.031-20.364-1.976-2.322-2.437-5.118-2.816-8.123-6.341-50.274-16.355-7.164-30.248-48.263-2.839-8.399-0.444-16.697 6.042-22.865 3.023-2.875 2.766-5.847 2.513-8.959-9.08-111.87 76.85-113.46 112.68-90.202 40.159 26.062 24.798 92.874 31.171 99.108 13.933 13.631 4.715 33.987-6.064 42.611-3.016 2.413-10.583-3.609-14.835 12.284-5.922 22.134-5.17 44.293-0.104 66.505 7.227 31.686 79.932 37.336 104.47 50.377 16.286 8.655 25.005 22.78 27.315 41.218 3.424 27.33 2.782 54.293-5.621 80.733-0.382 1.203-0.844 2.496-0.492 3.4 10.48 26.918 17.112 97.257 17.485 104.54 0.341 6.654 2.371 12.429 5.344 18.404 12.61 25.337 19.883 83.901 18.028 107.84-0.324 4.185 1.819 8.656 3.221 12.864 19.139 57.426 10.838 50.458 27.167 57.554 23.294 10.124 21.269 1.846 47.995 36.887 12.706 16.659 12.889 17.467 10.965 20.25-13.179 19.056-50.349-62.77-32.587 13.594 14.075 60.513 22.996 63.993 13.624 66.569-11.535 3.17-6.312-10.023-26.376-48.988-0.91-1.767-2.005-2.403-3.479-1.906-5.999 2.024 26.128 62.891 5.4 64.326-3.545 0.245-4.067-2.888-4.71-5.366-12.71-48.992-10.925-45.756-12.93-46.139"/>
  <path d="m466.34 519.65c3.395 12.122 7.193 51.694 11.568 65.139 1.638 5.034 0.103 9.959 0.039 14.941-0.175 13.585 2.62 26.784 5.156 40.078 1.961 10.284 7.657 18.603 11.682 27.811 11.723 26.815 24.204 74.932 39.504 97.642 2.8 4.157 3.284 8.038 2.806 12.968-3.258 33.605 16.561 31.952 22.252 96.347 1.638 18.531 2.096 18.964 6.074 19.059 2.173 0.052 3.937-0.807 3.988-2.771 0.345-13.352 2.1-26.653 1.442-40.038"/>
  <path d="m222.03 519.65c-4.329 23.028-6.229 46.46-11.922 69.295-1.097 4.399 4.361 38.76-9.484 65.565-18.155 35.15-34.202 100.58-48.491 114.2-0.958 0.913-1.902 1.547-1.436 3.408 5.282 21.113-7.566 43.772-16.021 64.53-3.656 8.976-2.915 18.923-4.225 28.43-3.542 25.707-1.3 28.3-7.501 28.536-6.581 0.25-2.506-2.967-5.431-36.007"/>
  <path d="m117.52 850.83c-13.86 41.119-7.616 63.897-22.4 59.737-3.24-0.912-2.169-3.611-1.941-5.434 0-3e-3 6.696-51.588 6.696-51.588"/>
  <path d="m573.56 858.98c12.336 40.372 6.915 54.306 18.307 52.168 4.114-0.772 4.173-3.574 3.546-7.4-1.955-11.928-2.847-24.045-5.144-35.896-0.763-3.934 2.769-8.143-1.1-11.587"/>
  <path d="m335.36 320.13c-21.875-14.489-62.757 13.778-103.15 6.786"/>
  <path d="m456.16 325.56c-25.026 11.858-71.267-17.589-102.48-6.108"/>
  <path d="m458.87 700.17c-27.126 16.192-53.589 82.987-81.437 89.581"/>
  <path d="m475.16 420.57c-0.575 15.076-12.358 18.926-12.929 35.967-0.645 19.264 3.531 49.719 3.428 61.758"/>
  <path d="m231.53 700.85c31.098 23.832 48.744 77.841 79.401 88.902"/>
  <path d="m328.57 548.16c-25.691 13.08-79.345 80.337-92.295 65.15"/>
  <path d="m361.83 548.84c34.003 22.475 74.414 76.78 91.617 64.471"/>
  <path d="m450.73 459.93c-16.606 22.481-57.325 32.084-88.224 14.93"/>
  <path d="m238.99 459.93c7.006 17.314 51.743 34.832 86.866 14.93"/>
  <path d="m213.2 420.57c3.178 19.322 14.524 20.186 13.527 40.038-0.91 18.111-3.967 57.324-4.026 57.687"/>
  <path d="m263.42 1100.6c-15.317-16.826-35.011-11.481-39.372 13.571-0.177 1.018 0.795 2.656-1.347 2.716"/>
  <path d="m464.98 1116.9c-1.067-17.283-12.938-32.07-30.489-23.649-3.576 1.716-7.609 3.313-9.551 7.361"/>
  <path d="m262.07 451.79c-9.497 3.599-8.26 16.653 1.357 15.605 12.288-1.339 12.584-16.126 2.715-15.605"/>
  <path d="m422.23 451.79c-13.977 2.505-4.206 18.024 5.407 15.522 4.308-1.121 6.439-3.653 4.949-8.787-0.907-3.126-0.32-6.589-4.926-6.735"/>
  <path d="m275.64 1152.1c-3.294 16.504-11.649 23.479-27.148 23.189-2.863-0.054-4.904-1.733-7.463-2.151"/>
  <path d="m364.54 227.16c-8.26-10.286-30.234-7.953-38.077-2.826-3.379 2.209-2.685 2.799 5e-3 4.948 16.072 12.838 35.451 2.206 38.072-1.443"/>
  <path d="m413.4 1154.2c6.203 24.735 27.204 22.935 33.932 19.002"/>
  <path d="m124.98 776.18c-6.588 16.63-19.34 23.469-36.647 23.074"/>
  <path d="m564.06 776.86c6.494 16.291 19.057 22.834 35.968 22.395"/>
  <path d="m372.01 837.26c-3.109 7.63-6.908 15.213-11.834 21.483-7.181 9.138-26.022 11.056-33.682-3.814-3.106-6.03-6.739-11.788-10.132-17.669"/>
  <path d="m358.43 295.7c-7.287 8.765-19.944 8.765-27.146 0"/>
  <path d="m328.57 151.83c-8.967-6.481-20.878-5.903-28.503 0"/>
  <path d="m387.62 151.15c-9.427-6.031-18.67-4.494-27.824 0.679"/>
  <path d="m362.51 172.19c9.646 1.778 34.898-2.039 21.016-6.031-7.665-2.204-15.401-4.146-22.373 1.959"/>
  <path d="m327.22 168.12c-13.505-9.685-33.123 0.85-23.066 2.67 7.176 1.298 14.369 2.562 21.708 1.402"/>
  <path d="m363.86 203.41c-0.226 0-0.588-0.092-0.659 0.013-3.592 5.278-9.003-2.038-12.96 1.977-4.324 4.386-8.632 2.958-12.903-0.565-3.889-3.207-9.481 5.034-12.838-2.782"/>
  <path d="m340.79 648.6c1.952 5.444 3.105 5.548 7.465 0.679"/>
 </g>
</svg>
